<svg width="40" height="41" viewBox="0 0 40 41" fill="none" xmlns="http://www.w3.org/2000/svg">
<g clip-path="url(#clip0_3037_139)">
<rect y="0.445312" width="40" height="40" rx="8" fill="url(#paint0_linear_3037_139)"/>
<g clip-path="url(#clip1_3037_139)">
<path d="M12.6125 35.9937H8.34371C7.71871 35.9937 7.21246 35.4812 7.21246 34.8624V26.1249C7.21246 25.4999 7.72496 24.9937 8.34371 24.9937H12.6125C13.2375 24.9937 13.7437 25.5062 13.7437 26.1249V34.8624C13.75 35.4874 13.2375 35.9937 12.6125 35.9937Z" fill="white"/>
<path d="M21.9312 35.9937H18.0687C17.3375 35.9937 16.7312 35.3937 16.7312 34.6562V22.0499C16.7312 21.3187 17.3312 20.7124 18.0687 20.7124H21.9312C22.6625 20.7124 23.2687 21.3124 23.2687 22.0499V34.6562C23.2687 35.3937 22.6687 35.9937 21.9312 35.9937Z" fill="white"/>
<path d="M31.2812 35.9937H27.7625C26.9312 35.9937 26.2562 35.3125 26.2562 34.4874V18.0187C26.2562 17.1875 26.9375 16.5125 27.7625 16.5125H31.2812C32.1125 16.5125 32.7875 17.1937 32.7875 18.0187V34.4874C32.7875 35.3187 32.1125 35.9937 31.2812 35.9937Z" fill="white"/>
<path d="M31.8187 3.99993C30.4437 4.05618 29.375 5.21868 29.4312 6.59993L23.0812 12.8437L17.6687 8.10617L7.76247 18.0437C6.48747 18.2062 5.53122 19.3062 5.58122 20.6124C5.63747 21.9874 6.80622 23.0562 8.18122 22.9999C9.55622 22.9437 10.625 21.7749 10.5687 20.3999C10.5625 20.2874 10.5375 20.1812 10.5187 20.0687L17.975 12.9124L23.2062 17.4937L31.875 8.98117C31.925 8.98117 31.975 8.99368 32.025 8.98743C33.4 8.93118 34.4687 7.76243 34.4125 6.38743C34.3562 5.01243 33.1937 3.94368 31.8187 3.99993Z" fill="white"/>
</g>
<g clip-path="url(#clip2_3037_139)">
<path d="M210.1 -220C188.1 -219.1 171 -200.5 171.9 -178.4L70.3 -78.5L-16.3 -154.3L-174.8 4.70001C-195.2 7.30002 -210.5 24.9 -209.7 45.8C-208.8 67.8 -190.1 84.9 -168.1 84C-146.1 83.1 -129 64.4 -129.9 42.4C-130 40.6 -130.4 38.9 -130.7 37.1L-11.4 -77.4L72.3 -4.09999L211 -140.3C211.8 -140.3 212.6 -140.1 213.4 -140.2C235.4 -141.1 252.5 -159.8 251.6 -181.8C250.7 -203.8 232.1 -220.9 210.1 -220Z" fill="#303A3F"/>
</g>
</g>
<defs>
<linearGradient id="paint0_linear_3037_139" x1="20" y1="0.445312" x2="20" y2="40.4453" gradientUnits="userSpaceOnUse">
<stop stop-color="#B974FF"/>
<stop offset="1" stop-color="#932EFA"/>
</linearGradient>
<clipPath id="clip0_3037_139">
<rect y="0.445312" width="40" height="40" rx="8" fill="white"/>
</clipPath>
<clipPath id="clip1_3037_139">
<rect width="32" height="32" fill="white" transform="translate(4 4)"/>
</clipPath>
<clipPath id="clip2_3037_139">
<rect width="512" height="512" fill="white" transform="translate(-235 -220)"/>
</clipPath>
</defs>
</svg>
