<svg width="40" height="41" viewBox="0 0 40 41" fill="none" xmlns="http://www.w3.org/2000/svg">
<rect y="0.945312" width="40" height="40" rx="8" fill="url(#paint0_linear_3037_167)"/>
<path fill-rule="evenodd" clip-rule="evenodd" d="M31.3528 25.895C31.2321 25.6529 30.985 25.5 30.7143 25.5H9.28569C9.01498 25.5 8.76783 25.6529 8.64712 25.895L7.21855 28.7521C7.10783 28.9736 7.11926 29.2364 7.24926 29.4471C7.37997 29.6579 7.60926 29.7857 7.85712 29.7857H32.1428C32.3907 29.7857 32.62 29.6579 32.7507 29.4471C32.8807 29.2364 32.8921 28.9736 32.7814 28.7521L31.3528 25.895ZM30.2728 26.9286L30.9871 28.3571H9.01283L9.72712 26.9286H30.2728Z" fill="white"/>
<path fill-rule="evenodd" clip-rule="evenodd" d="M32.8572 29.0715C32.8572 28.6772 32.5372 28.3572 32.1429 28.3572H7.85717C7.46288 28.3572 7.14288 28.6772 7.14288 29.0715V31.9286C7.14288 32.3229 7.46288 32.6429 7.85717 32.6429H32.1429C32.5372 32.6429 32.8572 32.3229 32.8572 31.9286V29.0715ZM31.4286 29.7857V31.2143H8.57145V29.7857H31.4286Z" fill="white"/>
<path fill-rule="evenodd" clip-rule="evenodd" d="M12.8571 17.6428C12.8571 17.2485 12.5371 16.9285 12.1428 16.9285H9.2857C8.89141 16.9285 8.57141 17.2485 8.57141 17.6428V26.2142C8.57141 26.6085 8.89141 26.9285 9.2857 26.9285H12.1428C12.5371 26.9285 12.8571 26.6085 12.8571 26.2142V17.6428ZM11.4286 18.357V25.4999H9.99998V18.357H11.4286Z" fill="white"/>
<path fill-rule="evenodd" clip-rule="evenodd" d="M31.4286 17.6428C31.4286 17.2485 31.1086 16.9285 30.7143 16.9285H27.8572C27.4629 16.9285 27.1429 17.2485 27.1429 17.6428V26.2142C27.1429 26.6085 27.4629 26.9285 27.8572 26.9285H30.7143C31.1086 26.9285 31.4286 26.6085 31.4286 26.2142V17.6428ZM30 18.357V25.4999H28.5715V18.357H30Z" fill="white"/>
<path fill-rule="evenodd" clip-rule="evenodd" d="M22.1428 17.6428C22.1428 17.2485 21.8228 16.9285 21.4285 16.9285H18.5714C18.1771 16.9285 17.8571 17.2485 17.8571 17.6428V26.2142C17.8571 26.6085 18.1771 26.9285 18.5714 26.9285H21.4285C21.8228 26.9285 22.1428 26.6085 22.1428 26.2142V17.6428ZM20.7143 18.357V25.4999H19.2857V18.357H20.7143Z" fill="white"/>
<path fill-rule="evenodd" clip-rule="evenodd" d="M32.8572 14.7858C32.8572 14.3915 32.5372 14.0715 32.1429 14.0715H7.85717C7.46288 14.0715 7.14288 14.3915 7.14288 14.7858V17.643C7.14288 18.0372 7.46288 18.3572 7.85717 18.3572H32.1429C32.5372 18.3572 32.8572 18.0372 32.8572 17.643V14.7858ZM31.4286 15.5001V16.9287H8.57145V15.5001H31.4286Z" fill="white"/>
<path fill-rule="evenodd" clip-rule="evenodd" d="M20.3671 7.7449C20.1414 7.60847 19.8586 7.60847 19.6328 7.7449L8.91856 14.1735C8.64285 14.3385 8.51142 14.667 8.59713 14.9763C8.68285 15.2856 8.96499 15.4999 9.2857 15.4999H30.7143C31.035 15.4999 31.3171 15.2856 31.4028 14.9763C31.4886 14.667 31.3571 14.3385 31.0814 14.1735L20.3671 7.7449ZM20 9.1899L28.1357 14.0713H11.8643L20 9.1899Z" fill="white"/>
<defs>
<linearGradient id="paint0_linear_3037_167" x1="20" y1="0.945312" x2="20" y2="40.9453" gradientUnits="userSpaceOnUse">
<stop stop-color="#96FFAD"/>
<stop offset="1" stop-color="#50B3C7"/>
</linearGradient>
</defs>
</svg>
