<svg width="61" height="60" viewBox="0 0 61 60" fill="none" xmlns="http://www.w3.org/2000/svg">
<g clip-path="url(#clip0_3041_263)">
<path d="M51.9858 47.1705C50.5178 44.9722 48.2881 43.7565 46.1927 42.9666C45.1417 42.5712 44.1148 42.2797 43.21 42.0322C42.307 41.7863 41.5211 41.579 40.9932 41.3805C40.07 41.0374 39.0945 40.5931 38.4139 40.115C38.074 39.878 37.8121 39.6337 37.6602 39.4256C37.5067 39.2127 37.465 39.0656 37.4634 38.9371C37.4634 38.0493 37.4634 36.9397 37.4634 35.4781C38.6446 34.1635 40.3415 32.1268 41.039 28.8976C41.2825 28.7882 41.5236 28.6636 41.7557 28.5022C42.3335 28.1036 42.8236 27.5243 43.2391 26.7368C43.6568 25.9462 44.0273 24.9353 44.4226 23.5526C44.6227 22.852 44.715 22.2429 44.715 21.7006C44.7159 21.0755 44.5873 20.5331 44.3511 20.0928C44.2056 19.818 44.0184 19.6051 43.8216 19.4242C44.2193 16.4472 44.883 8.60114 41.281 6.38032C41.9688 4.6906 41.9592 2.89634 40.4863 1.42353C39.2224 1.00247 36.2752 1.00247 33.9588 0.370246C31.6421 -0.262332 21.1138 -0.893035 17.9553 5.84513C14.8393 6.67587 14.2842 19.3366 16.3458 19.8228C16.2808 19.9136 16.2052 19.9883 16.1498 20.0928C15.9135 20.5331 15.7843 21.0754 15.7851 21.7006C15.7859 22.2429 15.8784 22.852 16.0783 23.5526C16.607 25.3941 17.0843 26.5835 17.7023 27.456C18.0108 27.8892 18.3627 28.237 18.7451 28.5022C18.9774 28.6636 19.2183 28.7881 19.4618 28.8976C20.1593 32.1268 21.8562 34.1636 23.0374 35.4781C23.0374 36.9397 23.0374 38.0493 23.0374 38.9371C23.0374 39.0463 22.994 39.2038 22.8244 39.4288C22.5762 39.7631 22.0611 40.1681 21.4496 40.5112C20.8397 40.8583 20.1383 41.1588 19.5244 41.375C18.8037 41.6304 17.6426 41.8965 16.3417 42.2692C14.3869 42.8349 12.076 43.6489 10.1958 45.2615C9.25739 46.0674 8.43298 47.0798 7.8536 48.3381C7.27353 49.5956 6.94095 51.0902 6.94165 52.8385C6.94165 53.2443 6.95935 53.6637 6.99626 54.0975C7.02286 54.402 7.13853 54.6487 7.27423 54.852C7.53298 55.2329 7.8761 55.5148 8.30595 55.805C9.05888 56.303 10.1018 56.7901 11.4372 57.2682C15.4338 58.6935 22.0506 59.9985 30.2502 60C36.9121 60 42.535 59.1354 46.5484 58.0491C48.5565 57.5051 50.1593 56.909 51.318 56.3136C51.8981 56.0139 52.3673 55.7174 52.7393 55.3928C52.9258 55.229 53.0888 55.057 53.2263 54.8521C53.3613 54.6488 53.4777 54.4021 53.5042 54.0977C53.5404 53.6645 53.5581 53.2459 53.5581 52.8418C53.5615 50.5107 52.9628 48.632 51.9858 47.1705ZM19.7214 16.5533L22.7979 12.1621C24.483 12.7936 33.5368 13.0041 36.2743 11.7411C36.8343 11.4823 37.4916 11.0452 38.1521 10.4868C38.4156 10.7431 38.5908 10.8991 38.5908 10.8991L39.8828 19.0385L30.882 20.1642L30.6297 21.0061H29.8711L29.619 20.1642L19.6981 18.9236L19.7214 16.5533ZM21.1299 28.0834L21.0383 27.5652L20.5434 27.3885C20.2284 27.276 19.9881 27.1612 19.7784 27.0156C19.469 26.7971 19.1886 26.499 18.8608 25.8883C18.537 25.2808 18.1939 24.3728 17.8186 23.0559C17.6539 22.4806 17.5953 22.0331 17.5953 21.7005C17.5961 21.3147 17.6699 21.089 17.7455 20.9468C17.7776 20.8881 17.8137 20.8408 17.8516 20.7998L18.1159 20.844C19.0881 21.9414 19.6531 23.5469 19.6531 23.5469L19.6772 21.1042L20.3538 21.2167L21.8274 24.5858L27.513 25.0067L30.04 22.4797H30.4611L32.9881 25.0067L38.6736 24.5858L40.1473 21.2167L40.2268 21.2031L40.6968 24.1648L41.5406 20.9846L42.6494 20.7998C42.6863 20.8415 42.7217 20.8857 42.7546 20.9468C42.831 21.089 42.904 21.3148 42.9057 21.7005C42.9057 22.0332 42.847 22.4807 42.6823 23.0559C42.1833 24.814 41.7358 25.836 41.3253 26.4033C41.1196 26.6901 40.9315 26.8693 40.7227 27.0155C40.5129 27.1609 40.2727 27.2758 39.9578 27.3884L39.4628 27.5651L39.3712 28.0833C38.7919 31.3271 37.1206 33.151 35.8864 34.5258L35.6542 34.7846V35.1317C35.6542 35.85 35.6542 36.4703 35.6542 37.036L30.4154 40.0298L24.8472 36.8487C24.8472 36.3304 24.8472 35.7736 24.8472 35.1317V34.7846L24.6149 34.5258C23.3805 33.1511 21.7093 31.3272 21.1299 28.0834ZM27.7909 49.3102L21.1823 42.6582C21.8209 42.3786 22.4734 42.0434 23.0575 41.6377C23.5148 41.318 23.9334 40.9597 24.2659 40.5233C24.5945 40.0926 24.847 39.5534 24.847 38.9372C24.847 38.7581 24.847 38.5613 24.847 38.3643L28.7463 40.5932L27.7155 42.7884L28.772 44.1791L27.7909 49.3102ZM30.2504 58.0354C29.7297 58.0354 29.3063 57.6135 29.3063 57.092C29.3063 56.5706 29.7297 56.148 30.2504 56.148C30.7718 56.148 31.1937 56.5706 31.1937 57.092C31.1937 57.6135 30.7718 58.0354 30.2504 58.0354ZM30.2504 53.4426C29.7297 53.4426 29.3063 53.0207 29.3063 52.4992C29.3063 51.9786 29.7297 51.555 30.2504 51.555C30.7718 51.555 31.1937 51.9786 31.1937 52.4992C31.1937 53.0207 30.7718 53.4426 30.2504 53.4426ZM32.9534 49.0789L31.9932 44.1791L33.0507 42.7884L32.0398 40.6181L35.654 38.5523C35.654 38.6808 35.654 38.8167 35.654 38.9371C35.6524 39.5341 35.8846 40.0701 36.202 40.4983C36.6841 41.1442 37.3526 41.6224 38.0805 42.0402C38.4807 42.2677 38.9009 42.4677 39.3235 42.6533L32.9534 49.0789Z" fill="black"/>
</g>
<defs>
<clipPath id="clip0_3041_263">
<rect width="60" height="60" fill="white" transform="translate(0.25)"/>
</clipPath>
</defs>
</svg>
